<svg width="376" height="69" viewBox="0 0 376 69" fill="none" xmlns="http://www.w3.org/2000/svg">
<path d="M47.4328 8.97694C47.5283 9.93976 47.3214 10.7514 46.5257 11.197C45.9369 11.5312 45.356 11.2527 44.8149 10.8708C44.425 10.6002 44.0351 10.3297 43.6213 10.091C39.8416 7.90271 36.046 5.53144 32.2743 3.3432C30.46 2.29284 30.5714 2.34058 32.1549 1.13904C34.3193 -0.516071 36.0142 -0.229609 38.4173 1.11517C40.7726 2.43607 42.5312 3.43073 44.6478 4.70389C46.4143 5.5951 47.3374 6.60567 47.4328 8.97694Z" fill="#3498DB"/>
<path d="M64.0713 30.955C63.2835 31.52 62.4719 31.7428 61.6921 31.2733C61.1112 30.9232 61.0635 30.2787 61.1192 29.6262C61.159 29.1487 61.1987 28.6793 61.1987 28.2018C61.2147 23.8333 61.3818 19.3613 61.4056 15.0087C61.4136 12.9159 61.4295 13.0353 63.2597 13.8072C65.7742 14.8655 66.371 16.4728 66.3948 19.226C66.4267 21.9236 66.4426 23.9447 66.3789 26.4114C66.4983 28.3928 66.0845 29.6898 64.0713 30.955Z" fill="#3498DB"/>
<path d="M53.2973 56.3305C52.422 55.9247 51.8252 55.3358 51.8411 54.4287C51.857 53.7523 52.3902 53.3863 52.979 53.1158C53.4087 52.9168 53.8384 52.7099 54.2522 52.4792C58.0478 50.3148 62.0105 48.238 65.7982 46.0895C67.6204 45.0551 67.5249 45.1267 67.7636 47.0921C68.0978 49.7976 66.9997 51.1105 64.6284 52.511C62.3049 53.8797 60.5543 54.8982 58.39 56.0759C56.7269 57.158 55.3901 57.4445 53.2973 56.3305Z" fill="#3498DB"/>
<path d="M25.9245 59.6169C25.837 58.654 26.0518 57.8424 26.8475 57.4047C27.4443 57.0785 28.0172 57.357 28.5583 57.7389C28.9482 58.0174 29.3381 58.28 29.744 58.5267C33.5077 60.7388 37.2874 63.1419 41.0353 65.362C42.8416 66.4283 42.7302 66.3805 41.1388 67.5662C38.9585 69.2053 37.2715 68.9109 34.8764 67.5423C32.529 66.2055 30.7784 65.2028 28.6777 63.9058C26.9191 63.0066 26.0041 61.9881 25.9245 59.6169Z" fill="#3498DB"/>
<path d="M9.4448 37.5116C10.2326 36.9546 11.0442 36.7397 11.824 37.2092C12.4049 37.5593 12.4447 38.2039 12.381 38.8563C12.3333 39.3338 12.2935 39.8033 12.2935 40.2807C12.2458 44.6492 12.0468 49.1212 11.9911 53.4738C11.9673 55.5666 11.9513 55.4472 10.1291 54.6674C7.62259 53.5932 7.04171 51.9779 7.03375 49.2246C7.0258 46.5271 7.0258 44.506 7.09741 42.0392C7.00193 40.0658 7.43162 38.7609 9.4448 37.5116Z" fill="#3498DB"/>
<path d="M20.4182 12.2233C21.2935 12.6291 21.8823 13.2259 21.8585 14.141C21.8425 14.8174 21.3014 15.1754 20.7047 15.446C20.275 15.6449 19.8453 15.8438 19.4315 16.0746C15.62 18.2072 11.6413 20.2601 7.83777 22.3768C6.0076 23.3953 6.11105 23.3237 5.88029 21.3582C5.56995 18.6528 6.67601 17.3398 9.05523 15.9632C11.3947 14.6105 13.1453 13.6079 15.3255 12.4461C16.9886 11.3719 18.3334 11.0934 20.4182 12.2233Z" fill="#3498DB"/>
<path d="M55.0801 3.40674C51.8972 3.40674 49.3111 5.99285 49.3111 9.17575C49.3111 11.3401 50.5127 13.2339 52.2792 14.2206C52.2473 19.3133 52.2314 24.398 52.2553 29.4906C52.2633 30.8831 51.6903 31.5197 50.5684 32.4109C49.9159 32.9361 49.3907 33.3976 48.9769 33.8432C48.6029 34.2411 48.038 34.4082 47.5048 34.2809L43.7888 33.4215C44.2583 35.0448 43.8524 36.8193 42.7305 38.0845L47.5048 39.1905C47.6799 39.2303 47.847 39.2303 48.0141 39.2064C48.2369 39.294 48.5472 39.1746 48.9292 38.9598C50.0989 38.2834 53.9343 36.1429 54.6982 35.6734C56.3931 34.639 57.149 33.6921 57.1013 31.6709C56.9819 25.9815 56.958 20.2761 57.1251 14.5867C59.3054 13.7591 60.8491 11.6505 60.8491 9.19166C60.8571 5.99285 58.263 3.40674 55.0801 3.40674ZM57.1411 12.3507C56.5522 12.7326 55.844 12.9634 55.0801 12.9634C53.9741 12.9634 52.9874 12.4939 52.2951 11.738C51.6744 11.0616 51.3004 10.1624 51.3004 9.18371C51.3004 7.09095 52.9953 5.40401 55.0801 5.40401C57.1729 5.40401 58.8598 7.09891 58.8598 9.18371C58.8678 10.5046 58.1835 11.6743 57.1411 12.3507Z" fill="#3498DB"/>
<path d="M40.9794 36.5966L40.3349 37.2809L40.1837 37.448L39.38 38.2994C38.7355 38.9917 37.7647 39.2861 36.8496 39.0713L35.9107 38.8564L35.7515 38.8166L34.542 38.5381C33.611 38.3233 32.871 37.6231 32.6005 36.708L32.3458 35.8486L32.2981 35.6735L31.94 34.4561C31.6854 33.5569 31.9082 32.5861 32.5448 31.9018L33.1893 31.2175L33.3405 31.0583L34.1521 30.191C34.6534 29.6499 35.3616 29.3555 36.0857 29.3555C36.2847 29.3555 36.4836 29.3714 36.6746 29.4191L37.6056 29.634L37.7806 29.6738L38.9742 29.9523C39.9052 30.1671 40.6532 30.8673 40.9158 31.7824L41.1704 32.6577L41.2182 32.8328L41.5762 34.0502C41.8468 34.9415 41.616 35.9202 40.9794 36.5966Z" fill="#3498DB"/>
<path d="M67.7323 32.2358C64.637 32.2358 62.0986 34.6867 61.9633 37.7582C57.5232 40.2727 53.091 42.7951 48.6747 45.3574C47.4732 46.0576 46.6377 45.8746 45.3088 45.3414C44.4733 45.0072 43.773 44.7765 43.1524 44.6412C42.5874 44.5218 42.1418 44.1081 41.9827 43.559L40.9323 39.9862C40.0013 40.9252 38.7361 41.4344 37.4391 41.4344C37.073 41.4344 36.6911 41.3946 36.333 41.3071L37.7176 46.0337C37.8051 46.3281 37.9961 46.5669 38.2348 46.718C38.3462 46.8772 38.5531 47.0204 38.8236 47.1796C39.9933 47.8639 43.7571 50.1158 44.5449 50.5455C46.2875 51.5004 47.4811 51.6834 49.2158 50.641C54.022 47.7366 58.8918 44.9197 63.8412 42.262C64.8677 43.2009 66.2364 43.7739 67.7323 43.7739C70.9152 43.7739 73.5013 41.1878 73.5013 38.0048C73.5013 34.8219 70.9152 32.2358 67.7323 32.2358ZM67.7323 41.7925C67.0003 41.7925 66.3159 41.5856 65.7351 41.2196C64.6608 40.5512 63.9447 39.3655 63.9447 38.0048C63.9447 37.4478 64.064 36.9147 64.2868 36.4373C64.8836 35.1323 66.2045 34.2172 67.7323 34.2172C69.8251 34.2172 71.512 35.9121 71.512 37.9969C71.52 40.0976 69.8251 41.7925 67.7323 41.7925Z" fill="#3498DB"/>
<path d="M49.3426 57.0229C48.2366 57.0229 47.2021 57.3332 46.3189 57.8822C41.9424 55.2882 37.55 52.71 33.1417 50.1637C31.9401 49.4714 31.6855 48.6518 31.4786 47.2275C31.3513 46.3522 31.2001 45.636 31.0171 45.0392C30.85 44.4981 30.9773 43.9093 31.3592 43.4955L33.9374 40.7503C32.2902 40.3365 30.9614 39.1031 30.4441 37.4878L27.1021 41.0606C26.9111 41.2595 26.7997 41.5062 26.7838 41.7608V41.7688C26.6963 41.9439 26.6724 42.1985 26.6724 42.5088C26.6644 43.8616 26.5769 48.254 26.6008 49.1531C26.6485 51.1424 27.0782 52.2724 28.8447 53.2511C33.8419 56.0362 38.7993 58.9008 43.6532 61.9325C43.6134 62.2189 43.5895 62.5054 43.5895 62.7998C43.5895 65.9827 46.1836 68.5688 49.3585 68.5688C52.5414 68.5688 55.1276 65.9827 55.1276 62.7998C55.1276 59.6169 52.5255 57.0229 49.3426 57.0229ZM49.3426 66.5716C47.3454 66.5716 45.7062 65.0199 45.5709 63.0545C45.5629 62.9669 45.5629 62.8794 45.5629 62.7919C45.5629 61.0174 46.7804 59.5294 48.4275 59.1236C48.722 59.052 49.0243 59.0122 49.3426 59.0122C51.4354 59.0122 53.1223 60.7071 53.1223 62.7919C53.1303 64.8846 51.4354 66.5716 49.3426 66.5716Z" fill="#3498DB"/>
<path d="M30.8021 30.4056L26.0198 29.2916C25.7254 29.2279 25.431 29.2677 25.1843 29.395C25.0331 29.4348 24.8501 29.5223 24.6512 29.6337C23.4735 30.3022 19.6222 32.4108 18.8503 32.8803C17.1554 33.9068 16.3915 34.8457 16.4154 36.8669C16.495 42.6757 16.4711 48.4924 16.2483 54.3012C14.2749 55.2163 12.9062 57.2215 12.9062 59.5371C12.9062 62.72 15.4924 65.3061 18.6753 65.3061C21.8582 65.3061 24.4443 62.72 24.4443 59.5371C24.4443 57.2215 23.0677 55.2163 21.0943 54.3012C21.1659 49.2245 21.2216 44.1478 21.2295 39.071C21.2375 37.6785 21.8184 37.0499 22.9403 36.1667C23.6326 35.6256 24.1896 35.1402 24.6114 34.6707C24.9854 34.2728 25.5503 34.1057 26.0835 34.2251L29.704 35.0606C29.2664 33.4373 29.6722 31.6628 30.8021 30.4056ZM22.4709 59.5292C22.4709 61.6219 20.776 63.3088 18.6912 63.3088C16.5984 63.3088 14.9115 61.614 14.9115 59.5292C14.9115 58.3515 15.4526 57.2932 16.296 56.6009C16.9485 56.0677 17.784 55.7415 18.6912 55.7415C19.5983 55.7415 20.4338 56.0598 21.0863 56.5929C21.9298 57.2932 22.4709 58.3515 22.4709 59.5292Z" fill="#3498DB"/>
<path d="M35.7997 22.4564C35.6962 22.0984 35.4337 21.8199 35.1233 21.6766H35.1154C35.0278 21.613 34.9324 21.5493 34.821 21.4857C33.6592 20.7934 29.9113 18.5096 29.1236 18.072C27.3809 17.1092 26.1953 16.9102 24.4526 17.9447C19.352 20.9684 14.1798 23.9047 8.92008 26.6499C8.01296 26.0531 6.93077 25.711 5.76901 25.711C2.58611 25.711 0 28.2971 0 31.48C0 34.6629 2.58611 37.249 5.76901 37.249C8.95191 37.249 11.538 34.6629 11.538 31.48C11.538 31.2413 11.5221 31.0105 11.4982 30.7797C15.9941 28.2812 20.474 25.7746 24.946 23.2283C26.1555 22.536 26.991 22.727 28.3119 23.2681C29.1395 23.6023 29.8318 23.833 30.4445 23.9763C30.9935 24.1036 31.4152 24.5174 31.5744 25.0505L32.577 28.496C33.7786 27.2945 35.5132 26.7931 37.1763 27.1671L35.7997 22.4564ZM5.77697 35.2676C3.68421 35.2676 1.99727 33.5727 1.99727 31.4879C1.99727 29.4031 3.69217 27.7082 5.77697 27.7082C6.1987 27.7082 6.61248 27.7798 6.99443 27.9072C8.49039 28.4164 9.56462 29.8249 9.56462 31.4879C9.56462 31.6232 9.55666 31.7505 9.54075 31.8858C9.34182 33.7876 7.7265 35.2676 5.77697 35.2676Z" fill="#3498DB"/>
<path d="M46.852 19.4568C46.7963 17.4674 46.3507 16.3455 44.5762 15.3747C39.3722 12.5339 34.2 9.58975 29.1551 6.47051C29.163 6.37502 29.163 6.27954 29.163 6.18405C29.163 3.00115 26.569 0.415039 23.394 0.415039C20.2111 0.415039 17.625 3.00115 17.625 6.18405C17.625 9.36695 20.2111 11.9531 23.394 11.9531C24.707 11.9531 25.9165 11.5154 26.8793 10.7754C31.3354 13.3695 35.7994 15.9556 40.2873 18.5019C41.4968 19.1862 41.7594 20.0058 41.9822 21.4222C42.1174 22.2816 42.2607 22.9739 42.4437 23.5707C42.6108 24.1038 42.4755 24.6767 42.0856 25.0825L39.595 27.7403C41.2421 28.154 42.571 29.3954 43.0803 31.0107L46.4303 27.4379C46.6133 27.2389 46.7167 27.0161 46.7486 26.7695V26.7615C46.8043 26.5865 46.8281 26.3636 46.8281 26.1011C46.8202 24.7483 46.8759 20.3559 46.852 19.4568ZM24.9218 9.6375C24.4523 9.84439 23.9351 9.96375 23.3861 9.96375C21.2933 9.96375 19.6064 8.26885 19.6064 6.18405C19.6064 4.09129 21.3013 2.40435 23.3861 2.40435C25.2242 2.40435 26.7599 3.7173 27.0941 5.45198C27.1419 5.6907 27.1657 5.93738 27.1657 6.18405C27.1657 7.7198 26.2427 9.04866 24.9218 9.6375Z" fill="#3498DB"/>
<path d="M107.872 28.9501C107.872 32.4399 122.66 30.7837 122.66 40.0111C122.66 46.0444 117.336 49.4159 110.712 49.4159C106.512 49.4159 102.312 47.3457 99 44.0333L104.738 38.2957C106.394 40.3068 108.76 41.8447 110.712 42.0222C112.664 42.1996 114.32 41.3715 114.616 40.4843C115.325 38.2366 111.244 38.1183 110.002 37.7634C105.329 36.3438 99.8872 34.3919 99.8872 28.5952C99.8872 21.6747 107.104 19.3087 110.712 19.3087C114.852 19.3087 119.052 21.2015 122.423 24.6322L116.745 30.3105C115.207 28.2994 112.545 26.7024 110.712 26.7024C109.765 26.7024 107.872 27.0573 107.872 28.9501V28.9501ZM154.257 32.2625V48.9427H145.503V32.2625C145.503 27.7671 144.32 25.8743 140.89 25.8743C137.341 25.8743 135.27 27.7671 135.27 32.2625V48.9427H126.516V6H135.27V22.976C136.394 19.7227 140.653 19.3087 143.196 19.3087C151.359 19.3087 154.257 23.2717 154.257 32.2625ZM173.197 26.525C169.589 26.525 166.572 29.719 166.572 34.3919C166.572 39.0055 169.589 42.1996 173.197 42.1996C176.864 42.1996 179.881 39.0055 179.881 34.3919C179.881 29.719 176.864 26.525 173.197 26.525V26.525ZM173.197 19.3087C181.773 19.3087 188.635 25.756 188.635 34.3919C188.635 43.0277 181.773 49.4159 173.197 49.4159C164.679 49.4159 157.818 43.0277 157.818 34.3919C157.818 25.756 164.679 19.3087 173.197 19.3087ZM222.303 34.3919C222.303 43.0277 216.565 49.4159 207.988 49.4159C206.214 49.4159 202.724 48.3512 201.364 46.9908V62.6654H192.609V19.7227H201.364V21.793C202.606 20.3142 204.853 19.3087 207.397 19.3087C215.974 19.3087 222.303 25.756 222.303 34.3919ZM213.489 34.3919C213.489 29.719 210.473 25.9335 206.805 25.9335C204.558 25.9335 202.369 27.5896 201.186 29.9556C200.654 31.1386 200.24 32.7948 200.24 34.3919C200.24 36.0481 200.595 37.5268 201.186 38.7689C202.428 41.1941 204.499 42.7911 206.805 42.7911C210.473 42.7911 213.489 39.0055 213.489 34.3919V34.3919ZM233.493 28.9501C233.493 32.4399 248.281 30.7837 248.281 40.0111C248.281 46.0444 242.957 49.4159 236.333 49.4159C232.133 49.4159 227.933 47.3457 224.621 44.0333L230.358 38.2957C232.015 40.3068 234.381 41.8447 236.333 42.0222C238.285 42.1996 239.941 41.3715 240.236 40.4843C240.946 38.2366 236.865 38.1183 235.623 37.7634C230.95 36.3438 225.508 34.3919 225.508 28.5952C225.508 21.6747 232.724 19.3087 236.333 19.3087C240.473 19.3087 244.673 21.2015 248.044 24.6322L242.366 30.3105C240.828 28.2994 238.166 26.7024 236.333 26.7024C235.386 26.7024 233.493 27.0573 233.493 28.9501V28.9501ZM282.067 34.3919C282.067 43.0277 276.329 49.4159 267.753 49.4159C265.978 49.4159 262.488 48.3512 261.128 46.9908V62.6654H252.374V19.7227H261.128V21.793C262.37 20.3142 264.618 19.3087 267.161 19.3087C275.738 19.3087 282.067 25.756 282.067 34.3919V34.3919ZM273.254 34.3919C273.254 29.719 270.237 25.9335 266.57 25.9335C264.322 25.9335 262.133 27.5896 260.95 29.9556C260.418 31.1386 260.004 32.7948 260.004 34.3919C260.004 36.0481 260.359 37.5268 260.95 38.7689C262.193 41.1941 264.263 42.7911 266.57 42.7911C270.237 42.7911 273.254 39.0055 273.254 34.3919V34.3919ZM292.607 28.3586L286.101 24.6322C289.354 20.9649 293.731 19.2495 298.285 19.2495C307.04 19.2495 310.589 24.0407 310.589 28.536V48.9427H301.834V46.8725C300.474 48.292 298.049 49.3567 295.328 49.3567C287.343 49.3567 284.267 45.8078 284.267 40.366C284.267 34.2144 289.235 30.0739 297.28 30.0739H301.834C301.834 27.8854 300.178 26.4658 297.694 26.4658C295.15 26.4658 293.908 26.939 292.607 28.3586V28.3586ZM301.834 39.3013V36.6987H296.688C294.381 36.6987 292.666 38.2957 293.021 40.5434C293.258 42.1405 294.677 42.7911 296.688 42.7911C300.533 42.7911 301.834 40.6026 301.834 39.3013ZM336.389 38.4732L342.541 44.0333C339.228 47.7005 334.911 49.4159 330.297 49.4159C321.779 49.4159 314.918 43.0277 314.918 34.3919C314.918 25.756 321.779 19.3087 330.297 19.3087C334.911 19.3087 339.228 21.024 342.541 24.6913L336.389 30.2514C335.088 27.2347 332.249 26.525 330.297 26.525C326.689 26.525 323.672 29.719 323.672 34.3919C323.672 39.0055 326.689 42.1996 330.297 42.1996C332.249 42.1996 335.147 41.6673 336.389 38.4732V38.4732ZM375.499 34.3919V36.3438H354.678C354.678 39.7745 358.168 42.1996 361.066 42.1996C363.905 42.1996 366.508 41.0758 367.868 38.5915L373.724 43.9741C371.358 47.1682 367.75 49.4159 361.066 49.4159C351.484 49.4159 345.628 43.0277 345.628 34.3919C345.628 25.756 351.307 19.3087 360.534 19.3087C369.761 19.3087 375.499 25.6377 375.499 34.3919ZM354.856 30.7837H366.331C365.857 28.0037 363.846 26.525 360.534 26.525C357.34 26.525 355.388 28.2403 354.856 30.7837Z" fill="#3498DB"/>
</svg>
